<mxfile host="65bd71144e">
    <diagram id="2dfhCRDusop8je0pq9Ed" name="Page-1">
        <mxGraphModel dx="749" dy="703" grid="1" gridSize="10" guides="1" tooltips="1" connect="1" arrows="1" fold="1" page="1" pageScale="1" pageWidth="827" pageHeight="1169" math="0" shadow="0">
            <root>
                <mxCell id="0"/>
                <mxCell id="1" parent="0"/>
                <mxCell id="2" value="" style="shape=actor;whiteSpace=wrap;html=1;" parent="1" vertex="1">
                    <mxGeometry x="160" y="110" width="40" height="60" as="geometry"/>
                </mxCell>
                <mxCell id="3" value="Iniciar Sesion" style="shape=umlLifeline;perimeter=lifelinePerimeter;whiteSpace=wrap;html=1;container=1;collapsible=0;recursiveResize=0;outlineConnect=0;shadow=0;strokeColor=default;" parent="1" vertex="1">
                    <mxGeometry x="420" y="170" width="100" height="390" as="geometry"/>
                </mxCell>
                <mxCell id="4" value="" style="html=1;points=[];perimeter=orthogonalPerimeter;fillColor=#009900;shadow=0;strokeColor=default;" parent="3" vertex="1">
                    <mxGeometry x="45" y="90" width="10" height="300" as="geometry"/>
                </mxCell>
                <mxCell id="5" value="USUARIO" style="shape=umlLifeline;perimeter=lifelinePerimeter;whiteSpace=wrap;html=1;container=1;collapsible=0;recursiveResize=0;outlineConnect=0;shadow=0;strokeColor=default;" parent="1" vertex="1">
                    <mxGeometry x="140" y="180" width="100" height="380" as="geometry"/>
                </mxCell>
                <mxCell id="6" value="" style="html=1;points=[];perimeter=orthogonalPerimeter;shadow=0;strokeColor=default;fillColor=#006600;" parent="5" vertex="1">
                    <mxGeometry x="45" y="90" width="10" height="290" as="geometry"/>
                </mxCell>
                <mxCell id="7" value="" style="endArrow=block;startArrow=none;endFill=0;startFill=0;endSize=8;html=1;verticalAlign=bottom;dashed=1;labelBackgroundColor=none;" parent="1" edge="1">
                    <mxGeometry width="160" relative="1" as="geometry">
                        <mxPoint x="200" y="300" as="sourcePoint"/>
                        <mxPoint x="470" y="300" as="targetPoint"/>
                    </mxGeometry>
                </mxCell>
                <mxCell id="8" value="" style="endArrow=block;startArrow=none;endFill=0;startFill=0;endSize=8;html=1;verticalAlign=bottom;dashed=1;labelBackgroundColor=none;entryX=0.125;entryY=-0.017;entryDx=0;entryDy=0;entryPerimeter=0;" parent="1" source="3" target="9" edge="1">
                    <mxGeometry width="160" relative="1" as="geometry">
                        <mxPoint x="210" y="310" as="sourcePoint"/>
                        <mxPoint x="250" y="320" as="targetPoint"/>
                    </mxGeometry>
                </mxCell>
                <mxCell id="9" value="se valida correctamente" style="text;html=1;align=center;verticalAlign=middle;resizable=0;points=[];autosize=1;strokeColor=none;fillColor=none;" parent="1" vertex="1">
                    <mxGeometry x="225" y="320" width="150" height="30" as="geometry"/>
                </mxCell>
                <mxCell id="10" value="Se carga el formulario de logueo" style="text;html=1;align=center;verticalAlign=middle;resizable=0;points=[];autosize=1;strokeColor=none;fillColor=none;" parent="1" vertex="1">
                    <mxGeometry x="214" y="260" width="200" height="30" as="geometry"/>
                </mxCell>
                <mxCell id="11" value="Menu Principal- Tipo de Ganado" style="shape=umlLifeline;perimeter=lifelinePerimeter;whiteSpace=wrap;html=1;container=1;collapsible=0;recursiveResize=0;outlineConnect=0;shadow=0;strokeColor=default;" parent="1" vertex="1">
                    <mxGeometry x="580" y="170" width="100" height="390" as="geometry"/>
                </mxCell>
                <mxCell id="12" value="" style="html=1;points=[];perimeter=orthogonalPerimeter;fillColor=#009900;shadow=0;strokeColor=default;" parent="11" vertex="1">
                    <mxGeometry x="45" y="90" width="10" height="300" as="geometry"/>
                </mxCell>
                <mxCell id="13" value="" style="endArrow=block;startArrow=none;endFill=0;startFill=0;endSize=8;html=1;verticalAlign=bottom;dashed=1;labelBackgroundColor=none;" parent="1" edge="1">
                    <mxGeometry width="160" relative="1" as="geometry">
                        <mxPoint x="217" y="390" as="sourcePoint"/>
                        <mxPoint x="620" y="390" as="targetPoint"/>
                    </mxGeometry>
                </mxCell>
                <mxCell id="14" value="El usuario es redireccionado &lt;br&gt;al menu de la aplicacion" style="text;html=1;align=center;verticalAlign=middle;resizable=0;points=[];autosize=1;strokeColor=none;fillColor=none;" parent="1" vertex="1">
                    <mxGeometry x="225" y="400" width="170" height="40" as="geometry"/>
                </mxCell>
                <mxCell id="15" value="Inventario - Ganado" style="shape=umlLifeline;perimeter=lifelinePerimeter;whiteSpace=wrap;html=1;container=1;collapsible=0;recursiveResize=0;outlineConnect=0;shadow=0;strokeColor=default;" parent="1" vertex="1">
                    <mxGeometry x="750" y="170" width="110" height="390" as="geometry"/>
                </mxCell>
                <mxCell id="16" value="" style="html=1;points=[];perimeter=orthogonalPerimeter;fillColor=#009900;shadow=0;strokeColor=default;" parent="15" vertex="1">
                    <mxGeometry x="50" y="90" width="10" height="300" as="geometry"/>
                </mxCell>
                <mxCell id="17" value="" style="endArrow=block;startArrow=none;endFill=0;startFill=0;endSize=8;html=1;verticalAlign=bottom;dashed=1;labelBackgroundColor=none;" parent="15" edge="1">
                    <mxGeometry width="160" relative="1" as="geometry">
                        <mxPoint x="210" y="349" as="sourcePoint"/>
                        <mxPoint x="70" y="349" as="targetPoint"/>
                    </mxGeometry>
                </mxCell>
                <mxCell id="18" value="" style="endArrow=block;startArrow=none;endFill=0;startFill=0;endSize=8;html=1;verticalAlign=bottom;dashed=1;labelBackgroundColor=none;" parent="1" edge="1">
                    <mxGeometry width="160" relative="1" as="geometry">
                        <mxPoint x="651" y="440" as="sourcePoint"/>
                        <mxPoint x="791" y="440" as="targetPoint"/>
                    </mxGeometry>
                </mxCell>
                <mxCell id="19" value="Lista inventario por tipo" style="text;html=1;align=center;verticalAlign=middle;resizable=0;points=[];autosize=1;strokeColor=none;fillColor=none;" parent="1" vertex="1">
                    <mxGeometry x="637" y="407" width="150" height="30" as="geometry"/>
                </mxCell>
                <mxCell id="20" value="Eliminar registro - Ganado" style="shape=umlLifeline;perimeter=lifelinePerimeter;whiteSpace=wrap;html=1;container=1;collapsible=0;recursiveResize=0;outlineConnect=0;shadow=0;strokeColor=default;" parent="1" vertex="1">
                    <mxGeometry x="920" y="170" width="100" height="400" as="geometry"/>
                </mxCell>
                <mxCell id="21" value="" style="html=1;points=[];perimeter=orthogonalPerimeter;fillColor=#009900;shadow=0;strokeColor=default;" parent="20" vertex="1">
                    <mxGeometry x="45" y="90" width="10" height="300" as="geometry"/>
                </mxCell>
                <mxCell id="22" value="" style="endArrow=block;startArrow=none;endFill=0;startFill=0;endSize=8;html=1;verticalAlign=bottom;dashed=1;labelBackgroundColor=none;" parent="1" edge="1">
                    <mxGeometry width="160" relative="1" as="geometry">
                        <mxPoint x="810" y="493" as="sourcePoint"/>
                        <mxPoint x="950" y="493" as="targetPoint"/>
                    </mxGeometry>
                </mxCell>
                <mxCell id="23" value="Se confirma el borrado" style="text;html=1;align=center;verticalAlign=middle;resizable=0;points=[];autosize=1;strokeColor=none;fillColor=none;" parent="1" vertex="1">
                    <mxGeometry x="827" y="450" width="140" height="30" as="geometry"/>
                </mxCell>
                <mxCell id="24" value="Se actualiza la lista" style="text;html=1;align=center;verticalAlign=middle;resizable=0;points=[];autosize=1;strokeColor=none;fillColor=none;" parent="1" vertex="1">
                    <mxGeometry x="830" y="530" width="130" height="30" as="geometry"/>
                </mxCell>
                <mxCell id="25" value="" style="endArrow=block;startArrow=none;endFill=0;startFill=0;endSize=8;html=1;verticalAlign=bottom;dashed=1;labelBackgroundColor=none;" parent="1" edge="1">
                    <mxGeometry width="160" relative="1" as="geometry">
                        <mxPoint x="790" y="550" as="sourcePoint"/>
                        <mxPoint x="650" y="550" as="targetPoint"/>
                    </mxGeometry>
                </mxCell>
                <mxCell id="26" value="Se actualiza contador&amp;nbsp;&lt;br&gt;por tipo" style="text;html=1;align=center;verticalAlign=middle;resizable=0;points=[];autosize=1;strokeColor=none;fillColor=none;" parent="1" vertex="1">
                    <mxGeometry x="655" y="556" width="140" height="40" as="geometry"/>
                </mxCell>
            </root>
        </mxGraphModel>
    </diagram>
</mxfile>